# xmcd
#
# Track frame offsets:
#	150
#	19311
#	32105
#	50124
#	69829
#	84496
#	101704
#	120240
#	133389
#	150057
#
# Disc length: 2209 seconds
#
# Revision: 0
# Processed by: cddbd v1.5PL3 Copyright (c) Steve Scherf et al.
# Submitted via: EasyCDDAExtractor 4.6.0.1
#
DISCID=7b089f0a
DTITLE=Clelia - Colors
DYEAR=2004
DGENRE=
TTITLE0=Fantasy
TTITLE1=Simple Song
TTITLE2=Cut me loose
TTITLE3=It's true
TTITLE4=Slows down
TTITLE5=Change the world
TTITLE6=Colours
TTITLE7=I'm going home
TTITLE8=Past and Future lives
TTITLE9=Night song
EXTD=
EXTT0=
EXTT1=
EXTT2=
EXTT3=
EXTT4=
EXTT5=
EXTT6=
EXTT7=
EXTT8=
EXTT9=
PLAYORDER=
